<?xml version="1.0" encoding="UTF-8" standalone="no"?>
<!-- Created with Inkscape (http://www.inkscape.org/) -->

<svg
   xmlns:dc="http://purl.org/dc/elements/1.1/"
   xmlns:cc="http://creativecommons.org/ns#"
   xmlns:rdf="http://www.w3.org/1999/02/22-rdf-syntax-ns#"
   xmlns:svg="http://www.w3.org/2000/svg"
   xmlns="http://www.w3.org/2000/svg"
   xmlns:sodipodi="http://sodipodi.sourceforge.net/DTD/sodipodi-0.dtd"
   xmlns:inkscape="http://www.inkscape.org/namespaces/inkscape"
   width="150.50922mm"
   height="52.244778mm"
   viewBox="0 0 150.50922 52.244778"
   version="1.1"
   id="svg8"
   inkscape:version="0.92.1 r15371"
   sodipodi:docname="MT.svg">
  <defs
     id="defs2" />
  <sodipodi:namedview
     id="base"
     pagecolor="#ffffff"
     bordercolor="#666666"
     borderopacity="1.0"
     inkscape:pageopacity="1"
     inkscape:pageshadow="2"
     inkscape:zoom="0.98994949"
     inkscape:cx="150.89141"
     inkscape:cy="57.603007"
     inkscape:document-units="mm"
     inkscape:current-layer="layer1"
     showgrid="false"
     inkscape:window-width="1920"
     inkscape:window-height="1001"
     inkscape:window-x="1699"
     inkscape:window-y="137"
     inkscape:window-maximized="1"
     inkscape:pagecheckerboard="true" />
  <metadata
     id="metadata5">
    <rdf:RDF>
      <cc:Work
         rdf:about="">
        <dc:format>image/svg+xml</dc:format>
        <dc:type
           rdf:resource="http://purl.org/dc/dcmitype/StillImage" />
        <dc:title></dc:title>
      </cc:Work>
    </rdf:RDF>
  </metadata>
  <g
     inkscape:label="Layer 1"
     inkscape:groupmode="layer"
     id="layer1"
     transform="translate(-7.1058278,-14.510244)">
    <path
       style="opacity:1;fill:#4d4d4d;fill-opacity:0.3918919;fill-rule:nonzero;stroke:none;stroke-width:0.26499999;stroke-linecap:round;stroke-linejoin:miter;stroke-miterlimit:4;stroke-dasharray:none;stroke-dashoffset:0;stroke-opacity:1;paint-order:markers fill stroke"
       id="path4496"
       d="m 14.765487,60.861413 c 0.081,-0.04474 0.160284,-0.09277 0.243014,-0.134237 0.647254,-0.324434 0.0081,0.03184 0.719184,-0.358211 0.146381,-0.0803 0.580414,-0.330322 0.435677,-0.2471 -7.7792528,4.472975 -9.9830574,5.83288 -7.0346108,4.022265 1.3773188,-0.95204 2.4603518,-2.239185 3.4908928,-3.541474 1.664977,-2.222985 3.180773,-4.551159 4.626002,-6.921246 1.757946,-2.89056 3.435868,-5.826564 5.041179,-8.804312 1.384405,-2.531909 2.774224,-5.061881 3.874277,-7.732493 0.764329,-1.998374 1.380091,-4.052065 1.981587,-6.104551 0.524007,-1.730066 0.908397,-3.495646 1.321308,-5.253874 0.323278,-1.206343 0.5378,-2.435955 0.712039,-3.671284 0.05043,-0.658446 0.246152,-1.307018 0.25931,-1.967998 -0.02791,-0.211043 5.29e-4,-0.0778 -0.137644,-0.384945 2.905236,-1.312398 5.785739,-2.680977 8.715705,-3.937193 0.06086,-0.02609 0.0058,0.132428 0.004,0.198626 -0.0047,0.171924 -0.04001,0.567538 -0.05159,0.709511 -0.161383,1.268184 -0.393618,2.524892 -0.560017,3.792753 -0.179854,1.553047 -0.228341,3.116346 -0.29236,4.677151 -0.06429,2.098756 -0.08147,4.199543 -0.08363,6.299318 -0.004,2.303426 0.324729,4.582232 0.738378,6.841813 0.407808,1.971776 1.097233,3.869645 1.977409,5.676572 0.510087,1.092877 1.176776,2.103123 2.063906,2.92341 0.428596,0.363194 0.913619,0.496718 1.461577,0.490345 -0.155806,0.315677 0.745066,-0.412245 0.566234,-0.312193 -2.616083,1.463654 -5.211135,2.964601 -7.820514,4.440174 -0.127286,0.07198 0.255836,-0.143142 0.374015,-0.229261 0.121206,-0.08833 0.227944,-0.194972 0.341913,-0.292458 1.223246,-1.140094 2.221077,-2.486189 3.197135,-3.835775 1.599637,-2.217912 2.83123,-4.665028 4.070427,-7.093889 1.587248,-3.012681 2.91634,-6.144186 4.093366,-9.33636 0.875025,-2.466666 1.809565,-4.914528 2.485885,-7.445107 0.336248,-1.312171 0.624871,-2.638536 0.796078,-3.982932 0.0094,-0.07745 0.07724,-0.495848 0.04648,-0.628191 -0.01678,-0.07218 -0.06672,-0.13234 -0.100071,-0.198509 2.899709,-1.28851 5.762088,-2.66454 8.699127,-3.865529 0.108024,-0.04417 -0.05169,0.227628 -0.07966,0.34093 -0.03319,0.134399 -0.0692,0.268082 -0.103807,0.402124 -0.267422,1.226803 -0.549217,2.449377 -0.73751,3.691171 -0.296183,2.222791 -0.309399,4.469079 -0.365816,6.707 -0.07481,2.676374 0.01614,5.349952 0.220062,8.018364 0.185836,1.873316 0.486751,3.744103 0.991833,5.559867 0.332674,1.195964 0.522335,1.666026 0.937694,2.837707 0.982551,2.409063 2.321661,4.679913 3.913711,6.738217 0.321535,0.415698 0.670962,0.809057 1.006444,1.213583 1.288436,1.504545 2.755804,2.834579 4.38292,3.962879 0.776626,0.538541 1.308032,0.843531 2.111214,1.329481 1.437227,0.851577 2.997036,1.398979 4.650758,1.60088 0.335077,0.0241 0.736373,0.08638 1.033902,-0.127368 0.06367,-0.04574 0.22443,-0.214283 0.156041,-0.175958 -8.437195,4.728019 -10.88938,5.5216 -7.778475,4.495398 0.225573,-0.229979 0.280892,-0.533972 0.334132,-0.838526 0,0 8.513003,-4.211989 8.513003,-4.211989 v 0 c -0.02986,0.40899 -0.07319,0.816776 -0.158864,1.218509 -0.662043,3.843184 -6.197468,5.946693 -9.75869,4.978935 -1.616594,-0.447088 -3.117596,-1.171618 -4.520822,-2.092828 -0.344935,-0.22701 -0.696394,-0.444405 -1.034807,-0.681027 -2.017429,-1.410618 -3.844978,-3.082245 -5.432869,-4.962649 -0.340421,-0.42091 -0.69084,-0.833925 -1.02126,-1.26273 -1.642205,-2.131181 -3.028931,-4.450767 -4.087648,-6.925974 -0.371626,-1.023265 -0.689473,-1.851308 -1.00034,-2.895287 -0.550524,-1.848813 -0.900382,-3.756832 -1.098902,-5.673992 -0.236799,-2.681791 -0.384177,-5.366388 -0.31488,-8.060325 -0.01865,-2.227289 -0.01164,-4.456852 0.09787,-6.681926 0.101243,-1.222264 0.249299,-2.436089 0.498645,-3.638117 0.377155,-3.746817 1.024503,-0.881681 8.802515,-4.743595 0.06139,-0.03048 -0.09023,-0.145861 -0.157411,-0.132286 -0.07478,0.01511 -0.100023,0.118825 -0.127741,0.189902 -0.04806,0.123247 -0.06429,0.256644 -0.09644,0.384967 -0.262197,1.431359 -0.63033,2.842877 -1.051774,4.235148 -0.362167,1.168964 -0.728951,2.334666 -1.151893,3.483541 -0.292753,0.795236 -0.7312,1.88324 -1.029324,2.668885 -0.186941,0.492641 -0.366781,0.987946 -0.550175,1.48192 -1.20505,3.20162 -2.531086,6.355403 -4.055324,9.419791 -1.159185,2.39177 -2.239574,4.834374 -3.692136,7.068568 -0.893829,1.336212 -1.846564,2.632904 -2.857233,3.883457 -2.772185,3.058054 0.380693,0.296092 -9.026641,5.509723 -0.101365,0.05618 -0.230111,0.0383 -0.34594,0.03461 -0.01098,-2.65e-4 -0.515263,-0.09606 -0.552291,-0.103063 -0.652119,-0.20125 -1.211202,-0.565732 -1.678268,-1.066914 -0.87113,-0.973447 -1.520825,-2.11183 -2.017898,-3.318034 -0.831138,-1.917393 -1.536671,-3.890827 -1.968264,-5.940065 -0.421461,-2.307839 -0.739257,-4.63501 -0.819693,-6.982711 -0.004,-2.08271 -0.03002,-4.165526 -0.05147,-6.248088 -0.01252,-1.582642 0.03037,-3.166161 0.215961,-4.739548 0.120639,-1.214285 0.231373,-2.429361 0.378015,-3.640826 0.01135,-0.471268 0.01791,-0.182764 -0.01566,-0.577273 -0.0036,-0.04197 -0.04552,-0.107612 -0.0077,-0.126143 2.881791,-1.411647 5.839941,-2.666971 8.696063,-4.129858 0.08593,-0.04401 -0.07774,-0.185823 -0.153588,-0.245544 -0.02564,-0.02019 -0.04035,0.05131 -0.06052,0.07697 -0.207802,0.657509 -0.251127,1.369979 -0.407848,2.040562 -0.255405,1.278073 -0.475977,2.563062 -0.849093,3.814665 -0.468661,1.77826 -0.860742,3.575943 -1.395862,5.335994 -0.638678,2.097603 -1.270592,4.200911 -2.065655,6.245743 -0.443812,1.064887 -0.551349,1.371849 -1.074687,2.421763 -0.932894,1.87157 -1.997795,3.676574 -3.006,5.5074 -1.619038,2.937018 -3.194577,5.898917 -4.905177,8.784201 -1.393633,2.349246 -2.846701,4.664731 -4.392929,6.91691 -0.928757,1.320707 -1.861934,2.642216 -3.108531,3.689564 -2.952637,2.435328 -0.446296,0.409689 -8.9194618,5.254585 -0.5210717,0.297947 -1.1038213,0.52292 -1.6889256,0.650042 0,0 7.5794204,-5.764128 7.5794204,-5.764128 z"
       inkscape:connector-curvature="0" />
    <path
       style="opacity:1;fill:#4d4d4d;fill-opacity:0.3918919;fill-rule:nonzero;stroke:none;stroke-width:0.26499999;stroke-linecap:round;stroke-linejoin:miter;stroke-miterlimit:4;stroke-dasharray:none;stroke-dashoffset:0;stroke-opacity:1;paint-order:markers fill stroke"
       id="path4507"
       d="m 88.771779,15.202994 c 1.481294,0.545093 3.059232,0.799158 4.601969,1.109995 4.495017,0.950607 9.084722,1.232015 13.661362,1.461765 6.36817,0.25069 12.74281,0.258507 19.11494,0.269566 4.31166,-0.03266 8.62473,0.0263 12.9362,-0.03629 1.97185,-0.02863 3.87462,-0.105144 5.84384,-0.174313 3.72652,-0.166519 7.4564,-0.276225 11.17738,-0.546794 0.43976,-0.0388 0.74081,-0.05644 1.15656,-0.118166 0.0699,-0.01038 0.26546,-0.0823 0.20814,-0.04089 -7.87305,5.687439 -4.74665,5.710769 -8.55359,5.58299 -1.04028,-0.02668 -2.08094,-0.02512 -3.12145,-0.03139 -1.24506,-0.09504 -2.4926,-0.145183 -3.74096,-0.1633 -0.72589,-0.0087 -0.36772,-0.0061 -1.07453,-0.0082 0,0 7.57378,-5.482501 7.57378,-5.482501 v 0 c 0.69421,0.02234 0.34149,0.01044 1.05813,0.03582 1.23806,0.05973 2.47621,0.1417 3.71598,0.145011 1.07188,-0.0074 2.14387,-0.0082 3.2155,-0.0359 0.13294,-0.0039 0.26589,-0.0075 0.39882,-0.01182 0.10813,-0.0035 0.40964,-0.07807 0.32434,-0.01153 -8.422,6.570001 -4.42198,5.797278 -8.51183,5.501972 -3.45024,-0.154392 -6.90458,-0.06652 -10.35673,-0.0477 -6.18317,0.06438 -12.36615,0.02915 -18.54957,0.01894 -6.44993,-0.006 -12.90079,0.0081 -19.34946,-0.138753 -4.791578,-0.154339 -9.580804,-0.411391 -14.329567,-1.106521 -1.755483,-0.2103 -3.514455,-0.402781 -5.24778,-0.758384 0,0 7.848526,-5.413603 7.848526,-5.413603 z"
       inkscape:connector-curvature="0" />
    <path
       style="opacity:1;fill:#4d4d4d;fill-opacity:0.3918919;fill-rule:nonzero;stroke:none;stroke-width:0.26499999;stroke-linecap:round;stroke-linejoin:miter;stroke-miterlimit:4;stroke-dasharray:none;stroke-dashoffset:0;stroke-opacity:1;paint-order:markers fill stroke"
       id="path4518"
       d="m 126.92083,20.944285 c -0.54098,1.022201 -1.04089,2.06139 -1.48646,3.128565 -0.72567,1.773222 -1.40116,3.566861 -2.08221,5.357725 -1.18933,3.113389 -2.15725,6.304028 -3.10382,9.497539 -0.62391,2.189064 -1.16387,4.406082 -1.52614,6.654643 -0.20692,1.284267 -0.23026,1.663743 -0.36642,2.943831 -0.19954,2.356054 -0.22316,4.721574 -0.17565,7.084052 0.0268,1.36089 0.0508,2.722258 0.15149,4.080047 0.0658,0.437073 0.0127,0.243946 0.13668,0.585182 0,0 -8.27402,4.5676 -8.27402,4.5676 v 0 c -0.18342,-0.549447 -0.11776,-0.265465 -0.19332,-0.852787 -0.0477,-1.418034 0.10261,-2.840109 0.0817,-4.259347 0.0716,-2.431883 0.10648,-4.868833 0.37411,-7.289466 0.15437,-1.335083 0.1776,-1.69735 0.40964,-3.036684 0.39637,-2.287892 0.97883,-4.539856 1.58379,-6.779715 0.9096,-3.142388 1.79458,-6.293049 2.80484,-9.405107 0.55742,-1.773531 1.1149,-3.549869 1.80292,-5.277696 0.39446,-1.006004 0.7936,-2.00998 1.19207,-3.013919 0,0 8.67076,-3.984463 8.67076,-3.984463 z"
       inkscape:connector-curvature="0" />
    <path
       style="opacity:1;fill:#4d4d4d;fill-opacity:0.3918919;fill-rule:nonzero;stroke:none;stroke-width:0.26499999;stroke-linecap:round;stroke-linejoin:miter;stroke-miterlimit:4;stroke-dasharray:none;stroke-dashoffset:0;stroke-opacity:1;paint-order:markers fill stroke"
       id="path4529"
       d="m 98.368735,53.731241 c -0.139081,0.62324 -0.171826,1.264052 -0.19536,1.900333 0.0013,0.492789 -0.04216,0.987211 0.01318,1.477986 0.06575,0.387062 0.112067,0.776275 0.149683,1.16689 0,0 -8.420383,4.489479 -8.420383,4.489479 v 0 c -0.09509,-0.402596 -0.06136,-0.822294 -0.143119,-1.229352 -0.08102,-0.547243 -0.09657,-1.090602 -0.04941,-1.643537 0.0296,-0.646281 0.07943,-1.291365 0.09488,-1.938178 0,0 8.550542,-4.223621 8.550542,-4.223621 z"
       inkscape:connector-curvature="0" />
    <path
       style="opacity:1;fill:#4d4d4d;fill-opacity:0.3918919;fill-rule:nonzero;stroke:none;stroke-width:0.26499999;stroke-linecap:round;stroke-linejoin:miter;stroke-miterlimit:4;stroke-dasharray:none;stroke-dashoffset:0;stroke-opacity:1;paint-order:markers fill stroke"
       id="path4540"
       d="m 148.25296,55.704445 c 0.0221,0.470287 0.0817,1.017207 0.35666,1.414987 0.0529,0.05516 0.10574,0.11032 0.15861,0.165481 0,0 -8.106,4.901567 -8.106,4.901567 v 0 c -0.0787,-0.093 -0.15741,-0.186005 -0.23612,-0.279006 -0.075,-0.116257 -0.16362,-0.224795 -0.22504,-0.348779 -0.0383,-0.07723 -0.0459,-0.166179 -0.0709,-0.248655 -0.11755,-0.387482 -0.26354,-0.767017 -0.32008,-1.170644 0,0 8.44286,-4.434951 8.44286,-4.434951 z"
       inkscape:connector-curvature="0" />
    <path
       style="opacity:1;fill:#4d4d4d;fill-opacity:0.3918919;fill-rule:nonzero;stroke:none;stroke-width:0.71541053;stroke-linecap:round;stroke-linejoin:miter;stroke-miterlimit:4;stroke-dasharray:none;stroke-dashoffset:0;stroke-opacity:1;paint-order:markers fill stroke"
       d="m 262.61298,233.98191 c -18.7107,-6.60414 -39.79942,-26.18442 -51.8158,-48.10952 -5.90142,-10.76772 -9.81573,-22.04012 -11.97507,-34.48572 l -1.11684,-6.437 5.11804,-10.87035 c 6.65562,-14.13605 16.74579,-39.206337 21.91463,-54.449604 0.51284,-1.512397 0.61792,3.005901 0.35718,15.357143 -0.87578,41.484711 3.90967,62.600261 19.34463,85.357141 11.05026,16.29221 31.95248,32.58033 44.93518,35.0159 1.47523,0.27676 2.82894,0.74058 3.00826,1.03072 0.17931,0.29013 -4.80638,3.0087 -11.07932,6.04125 -6.27294,3.03254 -11.40535,5.80575 -11.40535,6.1627 0,0.35693 -1.28571,1.30489 -2.85714,2.10657 -2.86086,1.4595 -3.75713,2.85715 -1.83221,2.85715 1.61516,0 4.85442,-1.39042 5.70257,-2.44777 0.42488,-0.52967 5.75464,-3.61572 11.84393,-6.85788 6.08928,-3.24217 12.74155,-6.81403 14.78282,-7.93746 2.04126,-1.12344 3.92525,-2.04261 4.18663,-2.04261 0.9144,0 -0.51965,5.38335 -2.20965,8.2949 -6.20005,10.68153 -23.66962,16.08511 -36.90249,11.41444 z"
       id="path4569"
       inkscape:connector-curvature="0"
       transform="scale(0.26458333)" />
    <path
       style="opacity:1;fill:#4d4d4d;fill-opacity:0.3918919;fill-rule:nonzero;stroke:none;stroke-width:0.71541053;stroke-linecap:round;stroke-linejoin:miter;stroke-miterlimit:4;stroke-dasharray:none;stroke-dashoffset:0;stroke-opacity:1;paint-order:markers fill stroke"
       d="m 197.4254,140.03035 c -0.30224,-0.48903 -0.71132,-10.4221 -0.90906,-22.07347 -0.35008,-20.626979 0.24945,-33.586247 2.00911,-43.428975 l 0.78439,-4.387526 8.054,-3.648189 c 4.4297,-2.006503 8.39385,-3.648188 8.80921,-3.648188 0.41537,0 3.4227,-1.125 6.68295,-2.5 3.26025,-1.375 5.98933,-2.5 6.06463,-2.5 0.37314,0 -2.19297,9.857769 -4.46251,17.142857 -6.90894,22.177312 -25.65262,67.276531 -27.03272,65.043491 z"
       id="path4571"
       inkscape:connector-curvature="0"
       transform="scale(0.26458333)" />
    <path
       style="opacity:1;fill:#4d4d4d;fill-opacity:0.3918919;fill-rule:nonzero;stroke:none;stroke-width:0.71541053;stroke-linecap:round;stroke-linejoin:miter;stroke-miterlimit:4;stroke-dasharray:none;stroke-dashoffset:0;stroke-opacity:1;paint-order:markers fill stroke"
       d="m 134.40422,197.20696 c -5.24735,-3.80116 -11.24187,-15.46873 -15.469,-30.10842 -3.43247,-11.88755 -3.48762,-11.39975 2.55626,-22.60993 2.92344,-5.42239 6.46788,-12.59104 7.87654,-15.93032 3.05839,-7.25011 8.1673,-23.24539 11.52124,-36.071431 l 2.42817,-9.285714 -0.0697,23.928575 c -0.0632,21.6815 0.0754,24.70737 1.47568,32.22187 1.9822,10.63721 5.01803,20.05243 9.0577,28.09129 l 3.20837,6.38459 -4.08117,5.69182 c -2.24464,3.13049 -6.25378,7.94196 -8.90919,10.69214 -2.65541,2.75019 -4.68784,5.14051 -4.51651,5.31184 0.55986,0.55987 30.34862,-16.58368 30.38275,-17.48538 0.0255,-0.67298 -0.37556,-0.6913 -1.72032,-0.0786 -2.20628,1.00525 -5.52787,-0.22947 -7.55705,-2.80915 l -1.40502,-1.78619 2.89703,-5.08141 c 5.4982,-9.64388 16.79911,-32.96707 20.63218,-42.58141 2.11445,-5.30357 5.72139,-15.09909 8.01542,-21.76782 l 4.17097,-12.124967 0.0117,18.196397 c 0.006,10.00802 0.31494,21.86347 0.68566,26.34545 l 0.67404,8.14906 -3.89052,7.6059 c -5.37754,10.51298 -13.45491,22.25482 -21.4094,31.12217 -1.969,2.19497 -29.40773,16.04524 -31.78717,16.04524 -1.05988,0 -3.21023,-0.92953 -4.77856,-2.06561 z"
       id="path4573"
       inkscape:connector-curvature="0"
       transform="scale(0.26458333)" />
    <path
       style="opacity:1;fill:#4d4d4d;fill-opacity:0.3918919;fill-rule:nonzero;stroke:none;stroke-width:0.71541053;stroke-linecap:round;stroke-linejoin:miter;stroke-miterlimit:4;stroke-dasharray:none;stroke-dashoffset:0;stroke-opacity:1;paint-order:markers fill stroke"
       d="m 115.30025,149.13884 c -0.26832,-1.30145 -0.65834,-12.97341 -0.86671,-25.9377 -0.3034,-18.87755 -0.14662,-25.774977 0.78733,-34.63711 0.64139,-6.086127 1.40633,-11.305851 1.69987,-11.599385 1.00564,-1.005639 28.14982,-13.472419 28.52245,-13.099791 1.14452,1.144527 -7.2008,34.151904 -13.19302,52.180966 -3.62001,10.89167 -10.08066,25.14734 -14.99772,33.09302 l -1.46434,2.36628 z"
       id="path4575"
       inkscape:connector-curvature="0"
       transform="scale(0.26458333)" />
    <path
       style="opacity:1;fill:#4d4d4d;fill-opacity:0.3918919;fill-rule:nonzero;stroke:none;stroke-width:0.71541053;stroke-linecap:round;stroke-linejoin:miter;stroke-miterlimit:4;stroke-dasharray:none;stroke-dashoffset:0;stroke-opacity:1;paint-order:markers fill stroke"
       d="m 147.75567,188.90534 c 0,-0.20198 1.46625,-2.16739 3.25833,-4.36758 1.79208,-2.2002 4.08303,-5.24657 5.091,-6.76972 l 1.83268,-2.76936 2.33978,2.05435 c 1.28687,1.12989 2.77271,2.20823 3.30185,2.3963 1.27055,0.45159 1.41473,0.34747 -7.5018,5.4171 -7.85795,4.46776 -8.32184,4.6929 -8.32184,4.03891 z"
       id="path4577"
       inkscape:connector-curvature="0"
       transform="scale(0.26458333)" />
    <path
       style="opacity:1;fill:#4d4d4d;fill-opacity:0.3918919;fill-rule:nonzero;stroke:none;stroke-width:0.71541053;stroke-linecap:round;stroke-linejoin:miter;stroke-miterlimit:4;stroke-dasharray:none;stroke-dashoffset:0;stroke-opacity:1;paint-order:markers fill stroke"
       d="m 36.327095,246.0551 c 0,-0.57506 19.507567,-14.98578 22.762109,-16.81494 2.549211,-1.43274 3.81399,-2.82473 2.566578,-2.82473 -0.65801,0 -5.421643,2.58035 -11.757258,6.36864 -3.339286,1.99667 -6.326355,3.63055 -6.63793,3.63084 -0.311576,2.8e-4 1.175452,-2.16912 3.304507,-4.82091 14.202896,-17.69003 44.745978,-70.34664 53.312165,-91.91077 2.740304,-6.89832 7.546294,-22.71921 10.431394,-34.33923 l 2.30552,-9.285712 0.0688,21.428572 c 0.0379,11.78571 0.42887,24.87618 0.86898,29.08993 l 0.80022,7.66136 -7.35115,13.41007 c -13.495236,24.61817 -27.156673,46.46548 -34.794705,55.6435 -4.889956,5.87588 -10.83183,10.12207 -23.944734,17.11142 -11.292577,6.0191 -11.934486,6.3231 -11.934486,5.65196 z"
       id="path4579"
       inkscape:connector-curvature="0"
       transform="scale(0.26458333)" />
    <path
       style="opacity:1;fill:#4d4d4d;fill-opacity:0.3918919;fill-rule:nonzero;stroke:none;stroke-width:0.71541053;stroke-linecap:round;stroke-linejoin:miter;stroke-miterlimit:4;stroke-dasharray:none;stroke-dashoffset:0;stroke-opacity:1;paint-order:markers fill stroke"
       d="M 389.18424,84.232947 C 375.23781,83.95417 359.00567,83.358898 353.11281,82.91012 343.45883,82.17491 317.19137,79.120309 310.45231,77.9492 l -2.66051,-0.462341 13.37479,-9.273069 c 9.01258,-6.248642 13.9572,-9.247999 15.16051,-9.196204 0.98214,0.04228 7.08928,1.217015 13.57142,2.610531 23.67112,5.088763 34.75142,5.903609 95.35715,7.012566 34.62785,0.633616 55.39138,0.6628 78.21428,0.10993 17.08929,-0.413976 31.13278,-0.699179 31.20777,-0.633784 0.075,0.06539 -4.90715,3.786861 -11.07142,8.269926 l -11.20778,8.151026 -27.37982,0.310548 -27.37983,0.310547 1.48698,-2.914696 c 0.81782,-1.603082 1.48696,-3.230658 1.48696,-3.616836 0,-0.386177 -3.45536,0.881826 -7.67857,2.817784 l -7.67857,3.519925 -25.35715,-0.11262 c -13.94642,-0.06194 -36.76785,-0.34071 -50.71428,-0.619486 z"
       id="path4581"
       inkscape:connector-curvature="0"
       transform="scale(0.26458333)" />
    <path
       style="opacity:1;fill:#4d4d4d;fill-opacity:0.3918919;fill-rule:nonzero;stroke:none;stroke-width:0.71541053;stroke-linecap:round;stroke-linejoin:miter;stroke-miterlimit:4;stroke-dasharray:none;stroke-dashoffset:0;stroke-opacity:1;paint-order:markers fill stroke"
       d="m 545.85046,84.302538 -10.11948,-0.387108 10.80896,-7.824769 c 12.45494,-9.016312 10.54863,-8.460603 31.93001,-9.307937 8.01992,-0.317825 12.244,-0.248795 11.78572,0.192603 -0.39286,0.378385 -2.96429,2.614768 -5.71429,4.969741 -2.75,2.354972 -7.00713,6.252773 -9.4603,8.66178 l -4.46029,4.380011 -7.32542,-0.148607 c -4.02898,-0.08173 -11.87919,-0.322805 -17.44491,-0.535714 z"
       id="path4583"
       inkscape:connector-curvature="0"
       transform="scale(0.26458333)" />
    <path
       style="opacity:1;fill:none;fill-opacity:0.3918919;fill-rule:nonzero;stroke:none;stroke-width:0.71433072;stroke-linecap:round;stroke-linejoin:miter;stroke-miterlimit:4;stroke-dasharray:none;stroke-dashoffset:0;stroke-opacity:1;paint-order:markers fill stroke"
       d="m 416.71599,242.89538 c -0.56889,-0.92048 0.85448,-39.03311 1.73895,-46.56278 1.58678,-13.50858 4.40655,-25.48768 12.17037,-51.70288 5.80384,-19.59718 10.95076,-35.17416 14.48896,-43.8504 l 2.44407,-5.993253 9.10555,-4.185318 c 8.08816,-3.717679 9.61556,-4.185319 13.67009,-4.185319 2.5105,0 4.56454,0.125435 4.56454,0.278743 0,0.153309 -1.64208,4.412237 -3.64907,9.464286 C 459.997,124.4834 451.86494,150.65898 448.4342,169.5965 c -2.05729,11.35611 -3.11177,31.89259 -2.36732,46.10464 l 0.61736,11.78572 -14.50627,8.03571 c -7.97844,4.41965 -14.62912,8.03572 -14.77927,8.03572 -0.15016,0 -0.45737,-0.29831 -0.68271,-0.66291 z"
       id="path4585"
       inkscape:connector-curvature="0"
       transform="scale(0.26458333)" />
    <path
       style="opacity:1;fill:none;fill-opacity:0.3918919;fill-rule:nonzero;stroke:none;stroke-width:0.72158301;stroke-linecap:round;stroke-linejoin:miter;stroke-miterlimit:4;stroke-dasharray:none;stroke-dashoffset:0;stroke-opacity:1;paint-order:markers fill stroke"
       d=""
       id="path4800"
       inkscape:connector-curvature="0"
       transform="matrix(0.26458333,0,0,0.26458333,7.1058278,14.510244)" />
    <path
       style="opacity:1;fill:#4d4d4d;fill-opacity:0.3918919;fill-rule:nonzero;stroke:none;stroke-width:0.72158301;stroke-linecap:round;stroke-linejoin:miter;stroke-miterlimit:4;stroke-dasharray:none;stroke-dashoffset:0;stroke-opacity:1;paint-order:markers fill stroke"
       d="m 389.70914,168.44866 c 0.70845,-23.61229 2.44736,-37.41518 6.87887,-54.60228 4.66781,-18.103603 13.75577,-47.755643 18.83953,-61.469347 l 4.61203,-12.44118 9.8518,-4.731413 c 8.07531,-3.878239 10.67946,-4.676161 14.44171,-4.424998 l 4.5899,0.306416 -2.1077,5.249423 c -11.08813,27.616088 -20.15405,55.708308 -24.18785,74.949949 -2.06373,9.8442 -2.33471,13.9923 -2.37564,36.36549 l -0.0462,25.25381 -15.08818,8.33376 c -8.2985,4.58357 -15.3028,8.33376 -15.56511,8.33376 -0.26232,0 -0.19174,-9.50552 0.15684,-21.12339 z"
       id="path4802"
       inkscape:connector-curvature="0"
       transform="matrix(0.26458333,0,0,0.26458333,7.1058278,14.510244)" />
  </g>
</svg>
